<svg id="Layer_1" data-name="Layer 1" xmlns="http://www.w3.org/2000/svg" width="0.9425in" height="0.8648in" viewBox="0 0 67.8598 62.2646">
  <defs>
    <style>
      .cls-1 {
        fill: #21235f;
      }
    </style>
  </defs>
  <g>
    <path class="cls-1" d="M67.86,38.7861A1.5942,1.5942,0,0,0,66.29,37.1689l-6.0283-.0918C56.508,30.7822,46.1408,26.2549,33.93,26.2549S11.3518,30.7822,7.5979,37.0771L1.57,37.1689a1.593,1.593,0,0,0,.0469,3.1856l4.6943-.0713a9.4311,9.4311,0,0,0-.2226,1.997c0,.1758.0137.35.0234.5245l-4.456.0683A1.5934,1.5934,0,1,0,1.7033,46.06L6.842,45.98a15.64,15.64,0,0,0,6.0674,6.8028l-2.7237,2.8076A1.5929,1.5929,0,1,0,12.4719,57.81l3.29-3.3906q1.1719.5816,2.4512,1.09L14.28,59.5615A1.5932,1.5932,0,1,0,16.5666,61.78l4.4014-4.5351a1.5672,1.5672,0,0,0,.38-.67A45.0818,45.0818,0,0,0,33.93,58.3066a45.0823,45.0823,0,0,0,12.582-1.7314,1.5652,1.5652,0,0,0,.38.67L51.2932,61.78A1.5932,1.5932,0,1,0,53.58,59.5615l-3.9336-4.0527q1.28-.5055,2.4512-1.09l3.29,3.3906a1.5929,1.5929,0,1,0,2.2861-2.2187L54.95,52.7832A15.6406,15.6406,0,0,0,61.0178,45.98l5.1386.0791a1.5934,1.5934,0,1,0,.0479-3.1865l-4.4561-.0683c.01-.1748.0235-.3487.0235-.5245a9.4312,9.4312,0,0,0-.2227-1.997l4.6944.0713A1.5913,1.5913,0,0,0,67.86,38.7861ZM46.2385,35.372l3.79-2.0293a18.3409,18.3409,0,0,1,2.0293,1.3956l-4.4971,2.4052A13.6192,13.6192,0,0,0,46.2385,35.372Zm1.45-3.2421-3.0616,1.6386a21.349,21.349,0,0,0-8.7939-4.3154A33.1179,33.1179,0,0,1,47.6887,32.13ZM40.91,54.5166c5.0556-2.58,8.3652-6.8086,8.3652-11.6a10.3694,10.3694,0,0,0-.0977-1.3868L55.21,38.3027A8.0467,8.0467,0,0,1,56.3029,42.28C56.3029,47.9892,49.8469,52.8281,40.91,54.5166Z"/>
    <path class="cls-1" d="M58.4416,11.0849,54.98,2.8066A14.6626,14.6626,0,0,0,52.2648,11.68c0,6.45,3.4649,11.6806,7.7413,11.6806s7.7412-5.23,7.7412-11.6806S64.2824,0,60.0061,0a5.26,5.26,0,0,0-1.35.1884L59.3928,10.86A.4953.4953,0,0,1,58.4416,11.0849Z"/>
    <path class="cls-1" d="M16.9533,11.68a14.6626,14.6626,0,0,0-2.7148-8.8731l-3.4619,8.2783a.4953.4953,0,0,1-.9512-.2246L10.5617.1884A5.26,5.26,0,0,0,9.2121,0C4.9357,0,1.4709,5.23,1.4709,11.68S4.9357,23.36,9.2121,23.36,16.9533,18.13,16.9533,11.68Z"/>
    <path class="cls-1" d="M26.1887,21.8125a2.5806,2.5806,0,1,0,2.58-2.5811A2.58,2.58,0,0,0,26.1887,21.8125Z"/>
    <path class="cls-1" d="M36.9182,21.9482a2.58,2.58,0,1,0,2.58-2.58A2.58,2.58,0,0,0,36.9182,21.9482Z"/>
    <path class="cls-1" d="M54.4377,27.8418c0,2.1748,1.2158,3.9384,2.7168,3.9384S59.87,30.0166,59.87,27.8418s-1.2158-3.9385-2.7158-3.9385S54.4377,25.667,54.4377,27.8418Z"/>
    <path class="cls-1" d="M7.99,27.8418c0,2.1748,1.2158,3.9384,2.7167,3.9384s2.7159-1.7636,2.7159-3.9384-1.2159-3.9385-2.7159-3.9385S7.99,25.667,7.99,27.8418Z"/>
  </g>
</svg>
