<svg id="Layer_1" data-name="Layer 1" xmlns="http://www.w3.org/2000/svg" width="263.7893" height="97.9045" viewBox="0 0 263.7893 97.9045">
  <defs>
    <style>
      .cls-1 {
        fill: #21235f;
      }
    </style>
  </defs>
  <path class="cls-1" d="M263.4317,56.6086a3.36,3.36,0,0,0-3.0031-1.8519H188.86l-8.9335-11.4942H157.57V28.8233h5.9181V21.3222H143.1147L134.9349,0h-9.3216V19.1149h-5.7071v26.384L106.7678,57.52H96.7365L90.8549,68.2467H28.1186A23.3939,23.3939,0,0,0,7.1927,81.1856L.1978,95.1918a1.8755,1.8755,0,0,0,1.678,2.7127h231.463a3.3991,3.3991,0,0,0,2.7277-1.372L263.125,60.1206A3.3565,3.3565,0,0,0,263.4317,56.6086ZM36.5277,83.6941A3.1227,3.1227,0,1,1,39.65,80.57,3.1233,3.1233,0,0,1,36.5277,83.6941Zm15.1339,0a3.1227,3.1227,0,1,1,3.124-3.124A3.123,3.123,0,0,1,51.6616,83.6941Zm15.134,0A3.1227,3.1227,0,1,1,69.92,80.57,3.1222,3.1222,0,0,1,66.7956,83.6941Zm79.59-51.5439h6.58v3.9917h-6.58Zm-11.1314,0h8.4783v3.9917h-8.4783Zm-9.19,0h6.539v3.9917h-6.539ZM135.665,57.154H119.1224l5.6807-5.0076H135.665Zm22.8632,0H142.2773V52.1464h16.2509Zm6.61,0V52.1464h9.54l3.7292,5.0076Zm39.1431,11.3987h-5.5029V65.0793h5.5029Zm13.7633,0h-10.771V65.0793h10.771Zm13.7634,0h-10.77V65.0793h10.77Zm11.0083,0h-8.0147V65.0793h10.6488Z"/>
</svg>
