<?xml version="1.0" encoding="utf-8"?>
<svg version="1.1" xmlns:xlink="http://www.w3.org/1999/xlink" width="26px" height="20px" xmlns="http://www.w3.org/2000/svg">
  <g transform="matrix(1 0 0 1 -162 -125 )">
    <path d="M 24.62655112213435 4.742034395413948  C 22.798890810501163 3.75461049637826  20.165996530207096 2.907612318357553  20.165996530207096 2.907612318357553  C 19.85688041241115 1.2544994000799867  18.393310222030337 0  16.627383012639193 0  C 14.859653376905223 0  13.395632579938695 1.2571657112385046  13.088318888485588 2.912500555481494  C 5.756499132424543 3.597742523219129  0.022530329285421546 9.692929831578013  0.045060658570835695 17.107941163400444  C 0.05001733101363243 18.659734257654538  1.3554246098108058 19.908456650224423  2.9289428071044683 20  L 16.627383012639193 20  C 17.0257192344054 19.908456650224423  17.34835354977261 19.590276851975297  17.34835354977261 19.197440341287834  C 17.34835354977261 18.41221170510599  16.702634312452496 17.77540772341466  15.906412475505793 17.77540772341466  L 12.324540725709882 17.77540772341466  L 13.937712302545881 15.627694085233088  C 15.025476600445907 14.0176865306848  14.404090118754056 11.704661600675472  12.41871750212294 10.890547926943082  C 11.34221836886562 10.44927343020931  10.09584055279624 10.683908812158387  9.163535526965601 11.374039017019955  L 7.687348352184955 12.46678220681687  C 7.3692201026748405 12.702750744345202  6.917261697209334 12.640536817313254  6.6775389936124725 12.325023330222642  C 6.438717503187033 12.010398613518202  6.502703638357623 11.56468026485358  6.821282494453446 11.329156112518335  L 8.38849219954719 10.169755143758612  C 10.048526861296864 8.94058569968449  12.366447138180767 8.942363240456833  14.026932406516142 10.169755143758612  C 14.516741765181148 10.53192907612319  16.09386481516048 11.905523707950056  15.865407276206327 14.311869528507316  L 21.20644713660775 19.908456650224423  L 25.279029458240075 19.908456650224423  C 25.677365680006282 19.908456650224423  25.99999999537349 19.590276851975297  25.99999999537349 19.197440341287834  C 25.99999999537349 18.41221170510599  25.354280758053378 17.77540772341466  24.558058921106674 17.77540772341466  L 22.141455801952635 17.77540772341466  L 17.70207971955368 13.123583522197041  L 24.66124782923389 9.272985824112341  C 25.48811045699273 8.815642512827429  26.00005619462139 7.953561287327963  25.99999999537349 7.018619739590282  C 25.99999999537349 6.0676354263875965  25.47188907692327 5.198862373905703  24.62655112213435 4.742034395413948  Z M 17.70883881833931 3.5550815446829303  C 17.70883881833931 4.143891925521046  17.224436738702803 4.621606008087812  16.627383012639193 4.621606008087812  C 16.029878679989892 4.621606008087812  15.545927206939083 4.143891925521046  15.545927206939083 3.5550815446829303  C 15.545927206939083 2.9658267786517345  16.029878679989892 2.4885570812780493  16.627383012639193 2.4885570812780493  C 17.224436738702803 2.4885570812780493  17.70883881833931 2.9658267786517345  17.70883881833931 3.5550815446829303  Z " fill-rule="nonzero" fill="#ffffff" stroke="none" transform="matrix(1 0 0 1 162 125 )" />
  </g>
</svg>